<svg width="47" height="18" viewBox="0 0 47 18" fill="none" xmlns="http://www.w3.org/2000/svg">
<path d="M5.99857 3.47714H4.22571V8.09143H5.87714C6.12 8.09143 6.31429 7.94571 6.31429 7.63V3.81714C6.31429 3.59857 6.24143 3.47714 5.99857 3.47714ZM6.36286 14.5514V11.2729C6.36286 10.8843 6.14429 10.7629 5.82857 10.7629H4.22571V14.9157H5.99857C6.29 14.9157 6.36286 14.8186 6.36286 14.5514ZM9.69 2.53V7.36286C9.69 8.23714 9.39857 8.91714 8.47571 9.16C9.44714 9.20857 9.86 9.93714 9.86 10.7143V15.28C9.86 17.2229 9.13143 18 7.11571 18H0.728571V0.392856H7.60143C8.98571 0.392856 9.69 1.24286 9.69 2.53ZM17.669 18H14.0504C12.0347 18 11.3061 17.2229 11.3061 15.28V0.392856H14.9004V14.5271C14.9004 14.7943 14.949 14.9157 15.2404 14.9157H16.479C16.7704 14.9157 16.819 14.7943 16.819 14.5271V0.392856H20.4133V15.28C20.4133 17.2229 19.6847 18 17.669 18ZM29.8274 0.392856L26.0388 14.7214H29.3417L28.7346 18H21.3031L25.2617 3.67143H21.5946L22.2017 0.392856H29.8274ZM38.7448 0.392856L34.9563 14.7214H38.2591L37.652 18H30.2205L34.1791 3.67143H30.512L31.1191 0.392856H38.7448ZM40.0354 0.392856H44.5282C46.3254 0.392856 46.9082 1.09714 46.9082 2.7V7.58143C46.9082 8.38286 46.6897 9.03857 45.5482 9.13571C46.7382 9.13571 47.0054 9.93714 47.0054 10.8843V15.28C47.0054 17.2229 46.2768 18 44.2611 18H40.0597L39.4525 14.7214H42.974C43.2897 14.7214 43.4597 14.6971 43.4597 14.2843V11.3943C43.4597 11.1271 43.4111 10.9571 43.0225 10.9571H40.3268V7.92143H42.974C43.3625 7.92143 43.4597 7.82428 43.4597 7.43571V4.10857C43.4597 3.74428 43.314 3.67143 43.0468 3.67143H39.4282L40.0354 0.392856Z" fill="white"/>
</svg>
